# xmcd CD database file
#
# Track frame offsets:
#	150
#	7705
#	28211
#	42535
#	55873
#	82845
#	92717
#	112389
#	127364
#	140932
#	159595
#	174562
#
# Disc length: 2510 seconds
#
# Revision: 0
# Processed by: cddbd v1.5.2PL0 Copyright (c) Steve Scherf et al.
# Submitted via: CDex 1.70beta2
#
DISCID=a909cc0c
DTITLE=Ana Bon Bon - Bare Naked Blues
DYEAR=2007
DGENRE=Blues
TTITLE0=BEE'S
TTITLE1=BIZNESS
TTITLE2=LET'S MAKE A DEAL
TTITLE3=SWEETIE PIE
TTITLE4=LITTLESET TUGBOAT
TTITLE5=I LOVE BASEBALL
TTITLE6=SNAKEBITE (ROLL OVER AND DIE)
TTITLE7=LITTLE DEVIL
TTITLE8=GYPSY HEART
TTITLE9=BOYS OF LONDON
TTITLE10=COMING HOME
TTITLE11=SOUL ROCKS
EXTD=YEAR: 2007
EXTT0=
EXTT1=
EXTT2=
EXTT3=
EXTT4=
EXTT5=
EXTT6=
EXTT7=
EXTT8=
EXTT9=
EXTT10=
EXTT11=
PLAYORDER=
